<?xml version="1.0" encoding="utf-8"?><svg xmlns="http://www.w3.org/2000/svg" xmlns:xlink="http://www.w3.org/1999/xlink"><symbol viewBox="0 0 42 42" id="add" xmlns="http://www.w3.org/2000/svg"><path d="M42 20H22V0h-2v20H0v2h20v20h2V22h20z"/></symbol><symbol viewBox="0 0 451.85 451.85" id="arrow-down" xmlns="http://www.w3.org/2000/svg"><path d="M345.441 248.292L151.154 442.573c-12.359 12.365-32.397 12.365-44.75 0-12.354-12.354-12.354-32.391 0-44.744L278.318 225.92 106.409 54.017c-12.354-12.359-12.354-32.394 0-44.748 12.354-12.359 32.391-12.359 44.75 0l194.287 194.284c6.177 6.18 9.262 14.271 9.262 22.366 0 8.099-3.091 16.196-9.267 22.373z"/></symbol><symbol viewBox="0 0 451.85 451.85" id="arrow-small" xmlns="http://www.w3.org/2000/svg"><path d="M345.441 248.292L151.154 442.573c-12.359 12.365-32.397 12.365-44.75 0-12.354-12.354-12.354-32.391 0-44.744L278.318 225.92 106.409 54.017c-12.354-12.359-12.354-32.394 0-44.748 12.354-12.359 32.391-12.359 44.75 0l194.287 194.284c6.177 6.18 9.262 14.271 9.262 22.366 0 8.099-3.091 16.196-9.267 22.373z"/></symbol><symbol viewBox="0 0 268.83 268.83" id="arrow-up" xmlns="http://www.w3.org/2000/svg"><path d="M265.171 125.577l-80-80c-4.881-4.881-12.797-4.881-17.678 0-4.882 4.882-4.882 12.796 0 17.678l58.661 58.661H12.5c-6.903 0-12.5 5.597-12.5 12.5 0 6.902 5.597 12.5 12.5 12.5h213.654l-58.659 58.661c-4.882 4.882-4.882 12.796 0 17.678 2.44 2.439 5.64 3.661 8.839 3.661s6.398-1.222 8.839-3.661l79.998-80c4.882-4.882 4.882-12.796 0-17.678z"/></symbol><symbol viewBox="0 0 512 512" id="bell" xmlns="http://www.w3.org/2000/svg"><path d="M438.21 415.136l-24.977-46.878V252.489c0-71.565-48.062-132.111-113.603-151.069V43.632C299.631 19.573 280.059 0 256 0s-43.631 19.573-43.631 43.632v57.789C146.83 120.38 98.766 180.925 98.766 252.49v115.768L73.79 415.136c-4.81 9.027-4.538 19.652.726 28.423 5.265 8.769 14.514 14.005 24.743 14.005h99.158C200.106 487.865 225.283 512 256 512c30.716 0 55.894-24.135 57.583-54.436h99.159c10.228 0 19.477-5.236 24.743-14.005 5.262-8.771 5.534-19.396.725-28.423zM235.455 43.632c0-11.33 9.216-20.546 20.544-20.546s20.544 9.216 20.544 20.546V96.6a157.944 157.944 0 0 0-41.088 0V43.632zM121.853 252.489c0-73.968 60.178-134.147 134.147-134.147s134.147 60.179 134.147 134.147v106.217H121.853V252.489zM256 488.914c-17.981 0-32.795-13.792-34.435-31.35h68.872c-1.642 17.558-16.458 31.35-34.437 31.35zm161.69-57.238c-.506.843-1.999 2.802-4.948 2.802H99.259c-2.948 0-4.443-1.959-4.948-2.802-.506-.841-1.532-3.082-.145-5.685l23.549-44.199h276.572l23.549 44.199c1.385 2.603.358 4.843-.146 5.685z"/><path d="M256 149.113c-57.002 0-103.378 46.376-103.378 103.378 0 6.374 5.168 11.543 11.543 11.543 6.375 0 11.543-5.169 11.543-11.543 0-44.272 36.019-80.292 80.292-80.292 6.375 0 11.543-5.169 11.543-11.543 0-6.376-5.168-11.543-11.543-11.543z"/></symbol><symbol viewBox="0 0 45.7 45.7" id="check-mark" xmlns="http://www.w3.org/2000/svg"><path d="M20.687 38.332a5.308 5.308 0 0 1-7.505 0L1.554 26.704A5.306 5.306 0 1 1 9.059 19.2l6.928 6.927a1.344 1.344 0 0 0 1.896 0L36.642 7.368a5.308 5.308 0 0 1 7.505 7.504l-23.46 23.46z"/></symbol><symbol viewBox="0 0 475.2 475.2" id="close" xmlns="http://www.w3.org/2000/svg"><path d="M405.6 69.6C360.7 24.7 301.1 0 237.6 0s-123.1 24.7-168 69.6S0 174.1 0 237.6s24.7 123.1 69.6 168 104.5 69.6 168 69.6 123.1-24.7 168-69.6 69.6-104.5 69.6-168-24.7-123.1-69.6-168zm-19.1 316.9c-39.8 39.8-92.7 61.7-148.9 61.7s-109.1-21.9-148.9-61.7c-82.1-82.1-82.1-215.7 0-297.8C128.5 48.9 181.4 27 237.6 27s109.1 21.9 148.9 61.7c82.1 82.1 82.1 215.7 0 297.8z"/><path d="M342.3 132.9c-5.3-5.3-13.8-5.3-19.1 0l-85.6 85.6-85.6-85.6c-5.3-5.3-13.8-5.3-19.1 0-5.3 5.3-5.3 13.8 0 19.1l85.6 85.6-85.6 85.6c-5.3 5.3-5.3 13.8 0 19.1 2.6 2.6 6.1 4 9.5 4s6.9-1.3 9.5-4l85.6-85.6 85.6 85.6c2.6 2.6 6.1 4 9.5 4 3.5 0 6.9-1.3 9.5-4 5.3-5.3 5.3-13.8 0-19.1l-85.4-85.6 85.6-85.6c5.3-5.3 5.3-13.8 0-19.1z"/></symbol><symbol viewBox="0 0 512 512" id="delete" xmlns="http://www.w3.org/2000/svg"><path d="M353.574 176.526l-40.078-1.47-8.689 237.284 40.078 1.464zm-117.624-.736h40.1v237.28h-40.1zm-28.764 236.544l-8.689-237.285-40.078 1.471 8.69 237.284z"/><path d="M17.379 76.867v40.104h41.789L92.32 493.706c.909 10.353 9.579 18.294 19.972 18.294h286.74c10.394 0 19.07-7.947 19.972-18.301l33.153-376.728h42.464V76.867H17.379zm363.286 395.029H130.654L99.426 116.971H411.9l-31.235 354.925z"/><path d="M321.504 0H190.496c-18.428 0-33.42 14.992-33.42 33.42v63.499h40.104V40.104h117.64v56.815h40.104V33.42c0-18.428-14.992-33.42-33.42-33.42z"/></symbol><symbol viewBox="0 0 480.01 480.01" id="diagram" xmlns="http://www.w3.org/2000/svg"><path d="M40 48.01h104v16H40zm0 32h104v16H40zm0 32h72v16H40zm0 32h72v16H40zm-40 320h480v16H0zM463.163 68.43l-32-64a8 8 0 0 0-10.73-3.587l-.006.003-64 32a8.004 8.004 0 0 0 7.152 14.32l46.352-23.16-12.648 36.112C341.69 218.446 198.501 329.522 31.323 344.006l1.36 16C206.16 344.978 354.737 229.701 412.395 65.398l12.912-36.896 23.536 47.08a8.004 8.004 0 0 0 14.32-7.152zM96.003 384.006h-56a8 8 0 0 0-8 8v48a8 8 0 0 0 8 8h56a8 8 0 0 0 8-8v-48a8 8 0 0 0-8-8zm-8 48h-40v-32h40v32zm96-72h-56a8 8 0 0 0-8 8v72a8 8 0 0 0 8 8h56a8 8 0 0 0 8-8v-72a8 8 0 0 0-8-8zm-8 72h-40v-56h40v56zm96-112h-56a8 8 0 0 0-8 8v112a8 8 0 0 0 8 8h56a8 8 0 0 0 8-8v-112a8 8 0 0 0-8-8zm-8 112h-40v-96h40v96z"/><path d="M360.003 264.006h-56a8 8 0 0 0-8 8v168a8 8 0 0 0 8 8h56a8 8 0 0 0 8-8v-168a8 8 0 0 0-8-8zm-8 168h-40v-152h40v152zm96-280h-56a8 8 0 0 0-8 8v280a8 8 0 0 0 8 8h56a8 8 0 0 0 8-8v-280a8 8 0 0 0-8-8zm-8 280h-40v-264h40v264z"/></symbol><symbol viewBox="0 0 395 395" id="email" xmlns="http://www.w3.org/2000/svg"><path d="M395 320.089V74.911L258.806 197.5zm-197.5-67.407l-38.884-35L22.421 340.271h350.158L236.384 217.682zM372.579 54.729H22.421L197.5 212.318zM0 74.911v245.178L136.194 197.5z"/></symbol><symbol viewBox="0 0 496 496" id="fashion" xmlns="http://www.w3.org/2000/svg"><path d="M493.661 178.346l-80-80a8.001 8.001 0 0 0-4.224-2.208l-88-16a8 8 0 0 0-9.432 7.864 47.493 47.493 0 0 1-.68 7.584l-55.32-13.824v-2.56c21.645-4.418 35.61-25.547 31.192-47.192C282.779 10.365 261.65-3.6 240.005.818c-18.621 3.801-31.996 20.179-32 39.184h16c0-13.255 10.745-24 24-24s24 10.745 24 24-10.745 24-24 24a8 8 0 0 0-8 8v9.752l-55.32 13.832a47.493 47.493 0 0 1-.68-7.584 8 8 0 0 0-2.872-6.144 7.813 7.813 0 0 0-6.56-1.72l-88 16a8.001 8.001 0 0 0-4.224 2.208l-80 80a8 8 0 0 0 0 11.312l64 64a8 8 0 0 0 11.312 0l18.344-18.344v52.688h-56C17.98 287.938.074 305.742.01 327.767a39.876 39.876 0 0 0 16.243 32.235C-1.42 372.915-5.279 397.71 7.635 415.383a39.618 39.618 0 0 0 8.618 8.618c-17.739 13.054-21.537 38.018-8.483 55.757a39.885 39.885 0 0 0 32.235 16.243h288a8 8 0 0 0 5.656-2.344l64-64a7.925 7.925 0 0 0 2.272-5.656h.072V235.314l18.344 18.344a8 8 0 0 0 11.312 0l64-64a8 8 0 0 0 0-11.312zM248.005 96.242l58.176 14.544a65.272 65.272 0 0 1-58.176 32.216 65.272 65.272 0 0 1-58.176-32.216l58.176-14.544zm-232 231.76c0-13.255 10.745-24 24-24h176c13.255 0 24 10.745 24 24s-10.745 24-24 24h-176c-13.255 0-24-10.746-24-24zm0 64c0-13.255 10.745-24 24-24h176c13.255 0 24 10.745 24 24s-10.745 24-24 24h-176c-13.255 0-24-10.746-24-24zm200 88h-176c-13.255 0-24-10.745-24-24s10.745-24 24-24h176c13.255 0 24 10.745 24 24s-10.745 24-24 24zm120-11.312v-36.688h36.688l-36.688 36.688zm88-232l-50.344-50.344-11.312 11.312 21.656 21.656v196.688h-56a8 8 0 0 0-8 8v56h-72.208c13.315-17.25 10.126-42.027-7.123-55.343a37.764 37.764 0 0 0-.877-.657c17.673-12.913 21.532-37.708 8.619-55.382a39.6 39.6 0 0 0-8.619-8.618c17.74-13.054 21.538-38.018 8.483-55.757a39.882 39.882 0 0 0-32.275-16.243h-104v-68.688l21.656-21.656-11.312-11.312-50.344 50.344-52.688-52.688 72.576-72.576 76.8-13.96c5.232 34.688 38.8 61.536 79.296 61.536 40.496 0 74.064-26.848 79.296-61.536l76.8 13.96 72.608 72.576-52.688 52.688z"/><path d="M32.01 320h192v16h-192zm0 64h184v16h-184zm0 64h184v16h-184z"/></symbol><symbol viewBox="0 0 474.29 474.29" id="fb" xmlns="http://www.w3.org/2000/svg"><circle cx="237.11" cy="236.97" r="236.97"/><path d="M404.742 69.754c92.541 92.541 92.545 242.586-.004 335.134-92.545 92.541-242.593 92.541-335.134 0L404.742 69.754z"/><path d="M472.543 263.656L301.129 92.238l-88.998 88.998 5.302 5.302-50.671 50.667 41.474 41.474-5.455 5.452 44.901 44.901-51.764 51.764 88.429 88.429c99.718-20.18 176.69-102.97 188.196-205.569z"/><path d="M195.682 148.937v39.741h-29.115v48.598h29.115v144.402h59.808V237.276h40.134s3.76-23.307 5.579-48.781h-45.485v-33.231c0-4.962 6.518-11.641 12.965-11.641h32.587V93.031h-44.306c-62.763-.003-61.282 48.64-61.282 55.906z"/></symbol><symbol viewBox="0 0 60 60" id="folder" xmlns="http://www.w3.org/2000/svg"><path d="M26.525 10.5l-4.618-6.451-.392-.549H0v53h60v-46H26.525zM58 12.5v5H31.536l-3.579-5H58zm-56 42v-49h18.485l5 7h.012l4.69 6.551a1 1 0 0 0 .813.418v.031h27v35H2z"/></symbol><symbol viewBox="0 0 54 54" id="idea" xmlns="http://www.w3.org/2000/svg"><path d="M27 8c-9.374 0-17 7.626-17 17a16.96 16.96 0 0 0 11 15.9V50a1 1 0 0 0 1 1h1v2a1 1 0 0 0 1 1h6a1 1 0 0 0 1-1v-2h1a1 1 0 0 0 1-1v-9.1A16.96 16.96 0 0 0 44 25c0-9.374-7.626-17-17-17zm3 41a1 1 0 0 0-1 1v2h-4v-2a1 1 0 0 0-1-1h-1v-5h8v5h-1zm1.688-9.758a1 1 0 0 0-.688.95V42h-8v-1.808a1 1 0 0 0-.688-.95A14.966 14.966 0 0 1 12 25c0-8.271 6.729-15 15-15s15 6.729 15 15c0 6.49-4.145 12.214-10.312 14.242zM27 6a1 1 0 0 0 1-1V1a1 1 0 1 0-2 0v4a1 1 0 0 0 1 1zm24 18h-4a1 1 0 1 0 0 2h4a1 1 0 1 0 0-2zM7 24H3a1 1 0 1 0 0 2h4a1 1 0 1 0 0-2zM43.264 7.322l-2.828 2.828a.999.999 0 1 0 1.414 1.414l2.828-2.828a.999.999 0 1 0-1.414-1.414zM12.15 38.436l-2.828 2.828a.999.999 0 1 0 1.414 1.414l2.828-2.828a.999.999 0 1 0-1.414-1.414zm29.7 0a.999.999 0 1 0-1.414 1.414l2.828 2.828a.997.997 0 0 0 1.414 0 .999.999 0 0 0 0-1.414l-2.828-2.828zm-29.7-26.872a.997.997 0 0 0 1.414 0 .999.999 0 0 0 0-1.414l-2.828-2.828a.999.999 0 1 0-1.414 1.414l2.828 2.828z"/><path d="M27 13c-6.617 0-12 5.383-12 12a1 1 0 1 0 2 0c0-5.514 4.486-10 10-10a1 1 0 1 0 0-2z"/></symbol><symbol viewBox="0 0 297 297" id="key" xmlns="http://www.w3.org/2000/svg"><path d="M214.002 246c-4.143 0-7.5-3.357-7.5-7.5s3.357-7.5 7.5-7.5h16.416v-18c0-8.284-6.133-15-14.416-15h-37.584v81h37.584c8.283 0 14.416-6.716 14.416-15v-18h-16.416z"/><path d="M163.418 118c0-.338.555-.668.533-1H172c32.258 0 58.5-26.243 58.5-58.5S204.258 0 172 0h-47C92.744 0 66.5 26.243 66.5 58.5S92.744 117 125 117h9.053c-.023.332-.635.662-.635 1v164c0 8.284 6.715 15 15 15 8.283 0 15-6.716 15-15V118zM96.5 58.5C96.5 42.785 109.285 30 125 30h47c15.715 0 28.5 12.785 28.5 28.5S187.715 87 172 87h-47c-15.715 0-28.5-12.785-28.5-28.5z"/></symbol><symbol viewBox="0 0 512.09 512.09" id="link" xmlns="http://www.w3.org/2000/svg"><path d="M312.453 199.601a116.167 116.167 0 0 0-20.053-16.128 119.472 119.472 0 0 0-64.427-18.859 118.952 118.952 0 0 0-84.48 34.987L34.949 308.23a119.466 119.466 0 0 0-34.91 84.318c-.042 65.98 53.41 119.501 119.39 119.543a118.7 118.7 0 0 0 84.395-34.816l89.6-89.6a8.534 8.534 0 0 0-6.059-14.592h-3.413a143.626 143.626 0 0 1-54.613-10.581 8.533 8.533 0 0 0-9.301 1.877l-64.427 64.512c-20.006 20.006-52.442 20.006-72.448 0-20.006-20.006-20.006-52.442 0-72.448l108.971-108.885c19.99-19.965 52.373-19.965 72.363 0 13.472 12.679 34.486 12.679 47.957 0a34.134 34.134 0 0 0 9.899-21.675 34.137 34.137 0 0 0-9.9-26.282z"/><path d="M477.061 34.993c-46.657-46.657-122.303-46.657-168.96 0l-89.515 89.429a8.533 8.533 0 0 0-1.792 9.387 8.532 8.532 0 0 0 8.021 5.205h3.157a143.357 143.357 0 0 1 54.528 10.667 8.533 8.533 0 0 0 9.301-1.877l64.256-64.171c20.006-20.006 52.442-20.006 72.448 0 20.006 20.006 20.006 52.442 0 72.448l-80.043 79.957-.683.768-27.989 27.819c-19.99 19.965-52.373 19.965-72.363 0-13.472-12.679-34.486-12.679-47.957 0a34.139 34.139 0 0 0-9.899 21.845 34.137 34.137 0 0 0 9.899 26.283 118.447 118.447 0 0 0 34.133 23.893c1.792.853 3.584 1.536 5.376 2.304 1.792.768 3.669 1.365 5.461 2.048a67.799 67.799 0 0 0 5.461 1.792l5.035 1.365c3.413.853 6.827 1.536 10.325 2.133 4.214.626 8.458 1.025 12.715 1.195h6.485l5.12-.597c1.877-.085 3.84-.512 6.059-.512h2.901l5.888-.853 2.731-.512 4.949-1.024h.939a119.456 119.456 0 0 0 55.381-31.403l108.629-108.629c46.66-46.657 46.66-122.303.003-168.96z"/></symbol><symbol viewBox="0 0 512.02 512" id="login" xmlns="http://www.w3.org/2000/svg"><path d="M282.668 512.008h-224C26.305 512.008 0 485.703 0 453.34V58.676C0 26.312 26.305.008 58.668.008h224c32.363 0 58.664 26.304 58.664 58.668v117.332c0 8.832-7.168 16-16 16s-16-7.168-16-16V58.676c0-14.7-11.965-26.668-26.664-26.668h-224C43.968 32.008 32 43.977 32 58.676V453.34c0 14.7 11.969 26.668 26.668 26.668h224c14.7 0 26.664-11.969 26.664-26.668V336.008c0-8.832 7.168-16 16-16s16 7.168 16 16V453.34c0 32.363-26.3 58.668-58.664 58.668zm0 0"/><path d="M496 272.008H186.668c-8.832 0-16-7.168-16-16s7.168-16 16-16H496c8.832 0 16 7.168 16 16s-7.168 16-16 16zm0 0"/><path d="M410.668 357.34c-4.098 0-8.191-1.555-11.309-4.692-6.25-6.25-6.25-16.382 0-22.636l74.028-74.024-74.028-74.027c-6.25-6.25-6.25-16.387 0-22.637s16.383-6.25 22.637 0l85.332 85.336c6.25 6.25 6.25 16.383 0 22.633l-85.332 85.332a15.886 15.886 0 0 1-11.328 4.715zm0 0"/></symbol><symbol viewBox="0 0 512 512" id="menu" xmlns="http://www.w3.org/2000/svg"><path d="M363.3 256c0-11.4-9.3-20.7-20.7-20.7h-322C9.3 235.3 0 244.6 0 256c0 11.4 9.3 20.7 20.7 20.7h322c11.4 0 20.6-9.3 20.6-20.7zm128-177.6H20.7C9.3 78.4 0 87.7 0 99.1s9.3 20.7 20.7 20.7h470.6c11.4 0 20.7-9.3 20.7-20.7s-9.3-20.7-20.7-20.7zm0 313.8H20.7C9.3 392.2 0 401.5 0 412.9s9.3 20.7 20.7 20.7h470.6c11.4 0 20.7-9.3 20.7-20.7s-9.3-20.7-20.7-20.7z"/></symbol><symbol viewBox="0 0 512 512" id="menu-dots" xmlns="http://www.w3.org/2000/svg"><circle cx="256" cy="256" r="64"/><circle cx="256" cy="448" r="64"/><circle cx="256" cy="64" r="64"/></symbol><symbol viewBox="0 0 341.33 341.33" id="menu-square" xmlns="http://www.w3.org/2000/svg"><path d="M128 128h85.33v85.33H128zM0 0h85.33v85.33H0zm128 256h85.33v85.33H128zM0 128h85.33v85.33H0zm0 128h85.33v85.33H0zM256 0h85.33v85.33H256zM128 0h85.33v85.33H128zm128 128h85.33v85.33H256zm0 128h85.33v85.33H256z"/></symbol><symbol viewBox="0 0 31.43 31.43" id="minus" xmlns="http://www.w3.org/2000/svg"><path d="M1.111 16.832A1.117 1.117 0 0 1 0 15.706c0-.619.492-1.111 1.111-1.111H30.3c.619 0 1.127.492 1.127 1.111s-.508 1.127-1.127 1.127H1.111z"/></symbol><symbol viewBox="0 0 438.28 438.28" id="moon-phase-outline" xmlns="http://www.w3.org/2000/svg"><path d="M428.756 300.104c-.664-3.81-2.334-7.047-4.996-9.713-5.9-5.903-12.752-7.142-20.554-3.716-20.937 9.708-42.641 14.558-65.097 14.558-28.171 0-54.152-6.94-77.943-20.838-23.791-13.894-42.631-32.736-56.525-56.53-13.899-23.793-20.844-49.773-20.844-77.945 0-21.888 4.333-42.683 12.991-62.384 8.66-19.7 21.176-36.973 37.543-51.82 6.283-5.898 7.713-12.752 4.287-20.557-3.236-7.801-9.041-11.511-17.415-11.132-29.121 1.141-56.72 7.664-82.797 19.556C111.33 31.478 88.917 47.13 70.168 66.548c-18.747 19.414-33.595 42.399-44.54 68.95-10.942 26.553-16.416 54.39-16.416 83.511 0 29.694 5.806 58.054 17.416 85.082 11.613 27.028 27.218 50.344 46.824 69.949 19.604 19.599 42.92 35.207 69.951 46.822 27.028 11.607 55.384 17.415 85.075 17.415 42.64 0 81.987-11.563 118.054-34.69 36.069-23.124 63.05-54.006 80.944-92.645 1.524-3.423 1.951-7.036 1.28-10.838zm-122.191 84.064c-24.646 11.711-50.676 17.562-78.087 17.562-24.743 0-48.39-4.853-70.947-14.558-22.554-9.705-41.971-22.695-58.246-38.972-16.271-16.272-29.259-35.686-38.97-58.241-9.707-22.556-14.561-46.203-14.561-70.948 0-40.922 12.135-77.466 36.403-109.636 24.266-32.165 55.531-53.959 93.788-65.379-19.795 31.405-29.694 65.379-29.694 101.926 0 34.644 8.564 66.715 25.697 96.223 17.128 29.499 40.446 52.811 69.95 69.948 29.499 17.129 61.565 25.694 96.211 25.694 10.656 0 21.129-.855 31.408-2.57-17.318 20.938-38.307 37.255-62.952 48.951z"/></symbol><symbol viewBox="0 0 512 512" id="note" xmlns="http://www.w3.org/2000/svg"><path d="M389.688 30.963h-72.885v14.771h72.885c5.591.001 10.14 4.549 10.14 10.141a9.983 9.983 0 0 1-1.112 4.612l13.135 6.755a24.962 24.962 0 0 0 2.747-11.367c.001-13.737-11.174-24.912-24.91-24.912zM277.14 30.96h18.35v14.77h-18.35zM91.69 163.13h260.96v14.77H91.69zm0 269.25h260.96v14.77H91.69zm347.729-264.458l-10.445 10.444 9.184 9.185-30.329 30.329 10.444 10.445 40.774-40.774zm-50.666 69.048l9.836-9.835 10.444 10.444-9.836 9.835z"/><path d="M500.074 124.633l-5.464-5.464c-15.873-15.874-41.704-15.874-57.578 0l-5.341 5.341-10.445 10.444-27.072 27.072v-56.217c25.554-2.279 45.658-23.797 45.658-49.934 0-27.65-22.496-50.146-50.145-50.146H50.145C22.496 5.729 0 28.224 0 55.874v399.255h42.76v51.141h351.416V288.11l90.113-90.113 7.892-7.893 2.551-2.551 5.341-5.341c7.69-7.69 11.925-17.913 11.925-28.788s-4.233-21.102-11.924-28.791zM85.65 20.5h304.038c19.506 0 35.374 15.869 35.374 35.375s-15.869 35.374-35.374 35.374H85.65c9.042-9.075 14.641-21.583 14.641-35.374 0-13.793-5.598-26.3-14.641-35.375zM42.76 91.248v349.11H14.771V55.874c0-19.506 15.87-35.375 35.375-35.375 19.505 0 35.374 15.87 35.374 35.375 0 19.506-15.87 35.374-35.374 35.374H42.76zm336.646 400.251H57.53V106.02h321.875v70.776l-32.022 32.021H91.692v14.771h240.922l-30.915 30.915H91.692v14.771h195.237l-30.914 30.914H91.692v14.771h149.553l-2.577 2.577-8.401 28.338H91.692v14.771h134.197l-9.165 30.915H91.692v14.771h260.953V391.56h-87.977l37.042-10.98 19.933-19.933h31.001v-14.771h-16.23l42.992-42.992v188.615zM248.768 335.428l35.047 35.047-49.813 14.767 14.766-49.814zm49.044 28.156l-42.153-42.153 176.032-176.032 42.153 42.153-176.032 176.032zm191.819-191.818l-5.341 5.341-42.153-42.153 5.341-5.341c10.115-10.115 26.573-10.115 36.689 0l5.464 5.464c4.9 4.9 7.599 11.415 7.599 18.344-.001 6.93-2.7 13.445-7.599 18.345z"/></symbol><symbol viewBox="0 0 512 512" id="payment-method" xmlns="http://www.w3.org/2000/svg"><path d="M172.55 391.902c-.13-.64-.32-1.27-.57-1.88-.25-.6-.56-1.18-.92-1.72a9.57 9.57 0 0 0-1.24-1.52 9.57 9.57 0 0 0-1.52-1.24 9.87 9.87 0 0 0-1.73-.92c-.6-.25-1.23-.45-1.87-.57a9.847 9.847 0 0 0-3.9 0c-.64.12-1.27.32-1.88.57-.6.25-1.18.56-1.72.92-.55.36-1.06.78-1.52 1.24-.46.46-.88.97-1.24 1.52-.37.54-.67 1.12-.92 1.72a9.69 9.69 0 0 0-.57 1.88c-.13.64-.2 1.3-.2 1.95 0 .65.07 1.31.2 1.95.12.64.32 1.27.57 1.87.25.61.55 1.19.92 1.73.36.55.78 1.06 1.24 1.52.46.46.97.88 1.52 1.24.54.361 1.12.671 1.72.921.61.25 1.24.45 1.88.57.64.13 1.3.2 1.95.2.65 0 1.31-.07 1.95-.2.64-.12 1.27-.32 1.87-.57.61-.25 1.19-.561 1.73-.921a9.57 9.57 0 0 0 1.52-1.24c.46-.46.88-.97 1.24-1.52.36-.54.67-1.12.92-1.73a10.098 10.098 0 0 0 .77-3.82c0-.65-.07-1.31-.2-1.95z"/><path d="M459.993 394.982a9.705 9.705 0 0 0-.121-.297c-9.204-21.537-30.79-29.497-56.336-20.772l-69.668 19.266c-4.028-12.198-14.075-22.578-28.281-27.85a11.876 11.876 0 0 0-.265-.094l-76.581-25.992c-6.374-8.239-26.34-29.321-63.723-29.321-26.125 0-49.236 17.922-62.458 37.457H10c-5.523 0-10 4.477-10 10v126.077c0 5.523 4.477 10 10 10h59.457c5.523 0 10-4.477 10-10v-8.634h27.883c5.523 0 10-4.477 10-10v-2.878c16.254 1.418 21.6 4.501 36.528 13.109 11.48 6.62 28.831 16.625 60.077 30.674.145.065.292.127.439.185 5.997 2.359 17.72 6.065 32.173 6.065 10.06 0 21.445-1.797 33.131-7.094l153.991-55.136c.274-.098.544-.208.808-.33 14.717-6.771 36.648-25.854 25.506-54.435zM59.457 473.455H20V367.378h39.457v106.077zm37.883-18.634H79.457v-87.443H97.34v87.443zm329.156-23.747l-153.922 55.111a12.33 12.33 0 0 0-.854.348c-21.437 9.852-41.814 3.954-49.8.849-30.182-13.581-46.291-22.87-58.061-29.657-16.364-9.436-24.249-13.984-46.519-15.823V361.36c9.479-15.536 27.861-31.439 47.679-31.439 33.986 0 48.387 22.105 48.953 22.997a10 10 0 0 0 5.305 4.232l79.475 26.974c12.693 4.764 19.401 15.634 16.318 26.474a19.354 19.354 0 0 1-9.257 11.691 19.367 19.367 0 0 1-14.683 1.758l-89.593-28.392c-5.268-1.669-10.886 1.247-12.554 6.512-1.669 5.265 1.247 10.885 6.512 12.554l89.749 28.441c.095.03.19.059.286.086a39.657 39.657 0 0 0 10.857 1.523c6.638 0 13.203-1.691 19.161-5.011 9.213-5.133 15.875-13.547 18.759-23.692.23-.81.434-1.62.611-2.43l75.083-20.8c10.844-3.704 25.079-5.039 31.417 9.558 6.56 17.137-10.49 26.564-14.922 28.678zM359.06 131.543c-.13-.64-.32-1.27-.58-1.88-.25-.6-.55-1.18-.92-1.72a9.57 9.57 0 0 0-1.24-1.52 9.57 9.57 0 0 0-1.52-1.24c-.54-.36-1.12-.67-1.72-.92a9.81 9.81 0 0 0-1.87-.57 9.898 9.898 0 0 0-3.91 0c-.64.12-1.27.32-1.87.57-.61.25-1.19.56-1.73.92-.55.36-1.06.78-1.52 1.24-.46.46-.88.97-1.24 1.52-.36.54-.67 1.12-.92 1.72a9.69 9.69 0 0 0-.57 1.88c-.13.64-.2 1.3-.2 1.95 0 .65.07 1.31.2 1.95.12.64.32 1.27.57 1.87.25.61.56 1.19.92 1.73.36.55.78 1.06 1.24 1.52.46.46.97.88 1.52 1.24.54.36 1.12.67 1.73.92.6.25 1.23.44 1.87.57s1.3.2 1.95.2c.65 0 1.31-.07 1.96-.2.63-.13 1.26-.32 1.87-.57.6-.25 1.18-.56 1.72-.92a9.57 9.57 0 0 0 1.52-1.24c.46-.46.88-.97 1.24-1.52.37-.54.67-1.12.92-1.73.26-.6.45-1.23.58-1.87.13-.64.19-1.3.19-1.95 0-.65-.06-1.31-.19-1.95z"/><path d="M502 33.891h-59.457c-5.523 0-10 4.477-10 10v8.634H404.66c-5.523 0-10 4.477-10 10v2.878c-16.254-1.419-21.6-4.501-36.527-13.109-11.48-6.62-28.831-16.625-60.078-30.674a8.51 8.51 0 0 0-.44-.185c-10.171-4.002-36.828-11.876-65.299 1.027l-40.24 14.408-33.919-33.918c-3.905-3.905-10.237-3.905-14.142 0L32.657 114.309c-3.602 3.603-4.293 9.85 0 14.143l190.287 190.287c3.045 3.046 10.175 3.967 14.143 0l101.665-101.664c2.643.228 5.386.351 8.229.351 26.126 0 49.236-17.922 62.457-37.456H502c5.523 0 10-4.477 10-10V43.891c0-5.523-4.477-10-10-10zm-350.915-9.726l22.792 22.792c-6.775 4.19-14.608 6.432-22.792 6.432-8.185 0-16.017-2.241-22.792-6.432l22.792-22.792zM76.663 144.173L53.871 121.38l22.792-22.792c4.19 6.775 6.432 14.608 6.432 22.792 0 8.184-2.241 16.017-6.432 22.793zm153.353 153.352l-22.788-22.788c13.913-8.586 31.661-8.586 45.575 0l-22.787 22.788zm37.195-37.194c-22.098-16.03-52.292-16.03-74.39 0L91.07 158.579c7.809-10.74 12.025-23.641 12.025-37.199 0-13.559-4.215-26.459-12.025-37.199l22.817-22.816c10.74 7.809 23.64 12.025 37.199 12.025 13.559 0 26.459-4.216 37.199-12.025l21.629 21.629a39.465 39.465 0 0 0-13.462 4.592c-7.168 3.994-12.792 9.975-16.294 17.211a56.985 56.985 0 0 0-29.915 15.741c-22.225 22.226-22.225 58.389.001 80.615 11.112 11.112 25.709 16.669 40.307 16.669 14.597 0 29.195-5.556 40.308-16.669 7.23-7.23 12.295-16.116 14.832-25.8l33.764 11.459c-3.801 17.608.092 36.132 10.593 50.682l-22.837 22.837zm-60.798-98.313c.088.032.176.064.265.094l19.996 6.787c-1.51 6.815-4.927 13.081-9.957 18.112-14.428 14.426-37.904 14.428-52.33 0-14.428-14.427-14.428-37.902 0-52.33a36.977 36.977 0 0 1 12.062-8.048c1.846 15.362 12.907 29.055 29.964 35.385zm98.044 61.066a43.739 43.739 0 0 1-6.389-20.796 77.755 77.755 0 0 0 17.636 9.549l-11.247 11.247zm90.202-57.101c-9.478 15.538-27.86 31.441-47.678 31.441-3.708 0-7.183-.264-10.432-.734l-.039-.006c-21.596-3.137-33.213-15.411-37.042-20.271-.204-.3-1.073-1.437-1.202-1.626a9.964 9.964 0 0 0-5.511-4.583l-79.508-26.985c-12.688-4.762-19.395-15.627-16.321-26.463l.006-.021.007-.025a19.355 19.355 0 0 1 9.247-11.656 19.351 19.351 0 0 1 14.683-1.757l89.593 28.391c5.266 1.671 10.886-1.247 12.554-6.512 1.668-5.265-1.247-10.885-6.512-12.554l-71.255-22.58-.622-.622-.019-.019-36.89-36.89 31.708-11.354c.107-.039.239-.088.345-.131l.105-.042a9.59 9.59 0 0 0 .403-.174c21.436-9.852 41.812-3.955 49.799-.849 30.183 13.581 46.293 22.87 58.063 29.657 16.364 9.437 24.249 13.984 46.518 15.823v80.542zm37.884-6.015H414.66V72.525h17.883v87.443zm59.457 0h-39.457V53.891H492v106.077z"/></symbol><symbol viewBox="0 0 303.9 303.9" id="pen" xmlns="http://www.w3.org/2000/svg"><path d="M1.562 276.063a20.073 20.073 0 0 0 26.275 26.274l73.467-30.805-68.937-68.936-30.805 73.467zM298.021 55.559L248.34 5.879c-7.839-7.839-20.549-7.839-28.389 0L50.773 175.06c-.043.042-.079.089-.121.132l78.057 78.057c.043-.042.09-.078.132-.12l169.18-169.18c7.839-7.84 7.839-20.55 0-28.39z"/></symbol><symbol viewBox="0 0 512 512" id="percentage" xmlns="http://www.w3.org/2000/svg"><path d="M512 254.847c0-12.13-3.501-23.886-10.126-33.998-5.646-8.618-7.764-19.153-5.958-29.664a61.913 61.913 0 0 0-3.846-34.217c-4.642-11.206-12.374-20.727-22.361-27.533-8.401-5.725-14.433-14.838-16.983-25.66a61.949 61.949 0 0 0-16.524-29.609c-8.439-8.439-19.038-14.236-30.654-16.764-10.521-2.291-19.66-8.284-25.733-16.875-6.753-9.557-16.061-16.985-26.916-21.481-11.209-4.642-23.407-5.906-35.285-3.655-10.122 1.917-20.666-.158-29.686-5.847C278.032 3.299 266.593 0 254.845 0c-12.13 0-23.887 3.501-33.998 10.125-8.618 5.647-19.154 7.764-29.663 5.958a61.938 61.938 0 0 0-34.218 3.845c-11.206 4.643-20.726 12.375-27.532 22.362-5.725 8.401-14.839 14.433-25.66 16.984a61.953 61.953 0 0 0-29.609 16.523C65.727 84.233 59.93 94.833 57.4 106.451c-2.29 10.519-8.283 19.658-16.876 25.732A61.92 61.92 0 0 0 19.043 159.1c-4.642 11.208-5.905 23.408-3.655 35.284 1.918 10.124-.157 20.667-5.846 29.686C3.299 233.965 0 245.405 0 257.154c0 12.13 3.501 23.886 10.126 33.998 5.646 8.618 7.764 19.153 5.958 29.664a61.913 61.913 0 0 0 3.846 34.217c4.642 11.206 12.374 20.727 22.361 27.533 8.401 5.725 14.433 14.838 16.983 25.66a61.949 61.949 0 0 0 16.524 29.609c8.439 8.439 19.038 14.236 30.654 16.764 10.522 2.291 19.66 8.284 25.733 16.875 6.753 9.557 16.061 16.985 26.916 21.481 11.208 4.643 23.408 5.906 35.286 3.655 10.121-1.919 20.666.158 29.685 5.847 9.897 6.243 21.337 9.542 33.084 9.542 12.13 0 23.887-3.501 33.998-10.125 8.618-5.647 19.152-7.765 29.663-5.958a61.927 61.927 0 0 0 34.218-3.845c11.206-4.643 20.726-12.375 27.532-22.362 5.725-8.401 14.839-14.433 25.66-16.984a61.953 61.953 0 0 0 29.609-16.523c8.438-8.437 14.235-19.037 16.764-30.655 2.29-10.519 8.283-19.658 16.876-25.732a61.92 61.92 0 0 0 21.481-26.917c4.642-11.208 5.905-23.408 3.655-35.284-1.918-10.124.157-20.667 5.846-29.686 6.243-9.893 9.542-21.333 9.542-33.081zm-26.793 22.201c-8.451 13.4-11.518 29.155-8.636 44.367 1.51 7.964.659 16.152-2.46 23.68a41.55 41.55 0 0 1-14.408 18.065c-12.765 9.024-21.655 22.537-25.033 38.05a41.536 41.536 0 0 1-11.256 20.57 41.569 41.569 0 0 1-19.865 11.093c-15.797 3.723-29.234 12.727-37.838 25.351-4.563 6.697-10.954 11.885-18.481 15.003a41.547 41.547 0 0 1-22.96 2.586c-15.615-2.68-31.345.515-44.295 9-6.779 4.442-14.671 6.79-22.819 6.79a41.554 41.554 0 0 1-22.203-6.397c-10.116-6.38-21.572-9.691-33.126-9.691-3.75 0-7.513.349-11.241 1.056-7.969 1.508-16.154.658-23.683-2.46a41.542 41.542 0 0 1-18.064-14.408c-9.022-12.764-22.535-21.655-38.051-25.033a41.543 41.543 0 0 1-20.569-11.257 41.568 41.568 0 0 1-11.094-19.864c-3.722-15.797-12.724-29.234-25.349-37.838-6.697-4.564-11.885-10.955-15.004-18.483a41.558 41.558 0 0 1-2.587-22.958c2.681-15.614-.515-31.345-8.999-44.294-4.442-6.78-6.79-14.672-6.79-22.82 0-7.89 2.212-15.567 6.396-22.202 8.451-13.4 11.518-29.155 8.636-44.367-1.509-7.964-.659-16.152 2.46-23.681a41.55 41.55 0 0 1 14.408-18.065c12.765-9.024 21.655-22.537 25.033-38.05a41.536 41.536 0 0 1 11.256-20.57 41.569 41.569 0 0 1 19.865-11.093c15.798-3.723 29.234-12.727 37.838-25.351 4.563-6.697 10.954-11.885 18.481-15.003a41.567 41.567 0 0 1 22.96-2.586c15.613 2.68 31.345-.515 44.295-9 6.779-4.442 14.671-6.79 22.819-6.79 7.89 0 15.568 2.212 22.205 6.396 13.4 8.451 29.156 11.517 44.368 8.636 7.965-1.51 16.152-.658 23.681 2.46a41.542 41.542 0 0 1 18.064 14.408c9.022 12.764 22.535 21.655 38.051 25.033a41.543 41.543 0 0 1 20.569 11.257 41.568 41.568 0 0 1 11.094 19.864c3.722 15.797 12.725 29.234 25.349 37.838 6.697 4.564 11.885 10.955 15.004 18.483a41.558 41.558 0 0 1 2.587 22.958c-2.681 15.614.515 31.345 8.999 44.294 4.442 6.78 6.79 14.672 6.79 22.82a41.546 41.546 0 0 1-6.397 22.203z"/><path d="M225.462 226.012v-47.383c0-27.167-18.006-37.275-40.75-37.275-23.06 0-40.75 10.108-40.75 37.275v47.383c0 27.167 17.69 37.276 40.75 37.275 22.744 0 40.75-10.108 40.75-37.275zm-18.953 0c0 13.899-8.214 20.533-21.797 20.533s-21.797-6.634-21.797-20.533v-47.383c0-13.899 8.213-20.533 21.797-20.533 13.582 0 21.797 6.635 21.797 20.533v47.383zm115.617 25.273c-23.06 0-40.75 10.108-40.75 37.275v47.383c0 27.167 17.69 37.275 40.75 37.275 22.744 0 40.75-10.108 40.75-37.275V288.56c-.001-27.167-18.006-37.275-40.75-37.275zm21.796 84.657c0 13.899-8.214 20.533-21.797 20.533s-21.797-6.634-21.797-20.533v-47.383c0-13.899 8.213-20.533 21.797-20.533 13.582 0 21.797 6.634 21.797 20.533v47.383zm-20.534-196.484c0-6.001-5.685-10.425-10.739-10.424-3.159 0-6.317 1.58-7.897 4.739l-118.46 234.392c-.632 1.263-.949 2.842-.949 4.106 0 5.055 4.422 9.477 10.108 9.477 3.791 0 7.266-1.58 8.845-5.055L322.441 143.88c.631-1.579.947-2.843.947-4.422z"/></symbol><symbol viewBox="0 0 348.08 348.08" id="phone" xmlns="http://www.w3.org/2000/svg"><path d="M340.273 275.083l-53.755-53.761c-10.707-10.664-28.438-10.34-39.518.744l-27.082 27.076a792.327 792.327 0 0 1-5.344-2.973c-17.102-9.476-40.509-22.464-65.14-47.113-24.704-24.701-37.704-48.144-47.209-65.257-1.003-1.813-1.964-3.561-2.913-5.221l18.176-18.149 8.936-8.947c11.097-11.1 11.403-28.826.721-39.521L73.39 8.194c-10.682-10.68-28.421-10.356-39.518.744l-15.15 15.237.414.411c-5.08 6.482-9.325 13.958-12.484 22.02C3.74 54.28 1.927 61.603 1.098 68.941-6 127.785 20.89 181.564 93.866 254.541c100.875 100.868 182.167 93.248 185.674 92.876 7.638-.913 14.958-2.738 22.397-5.627 7.992-3.122 15.463-7.361 21.941-12.43l.331.294 15.348-15.029c11.074-11.098 11.393-28.83.716-39.542z"/></symbol><symbol viewBox="0 0 56.97 56.97" id="search" xmlns="http://www.w3.org/2000/svg"><path d="M55.146 51.887L41.588 37.786A22.926 22.926 0 0 0 46.984 23c0-12.682-10.318-23-23-23s-23 10.318-23 23 10.318 23 23 23c4.761 0 9.298-1.436 13.177-4.162l13.661 14.208c.571.593 1.339.92 2.162.92.779 0 1.518-.297 2.079-.837a3.004 3.004 0 0 0 .083-4.242zM23.984 6c9.374 0 17 7.626 17 17s-7.626 17-17 17-17-7.626-17-17 7.626-17 17-17z"/></symbol><symbol viewBox="0 0 54 54" id="settings" xmlns="http://www.w3.org/2000/svg"><path d="M51.22 21h-5.052c-.812 0-1.481-.447-1.792-1.197s-.153-1.54.42-2.114l3.572-3.571a2.763 2.763 0 0 0 .814-1.966c0-.743-.289-1.441-.814-1.967l-4.553-4.553c-1.05-1.05-2.881-1.052-3.933 0l-3.571 3.571a1.877 1.877 0 0 1-1.352.574c-.5 0-.997-.196-1.364-.539A1.873 1.873 0 0 1 33 7.832V2.78A2.783 2.783 0 0 0 30.22 0h-6.44A2.783 2.783 0 0 0 21 2.78v5.052c0 1.218-.997 1.945-1.961 1.945-.354 0-.876-.1-1.351-.574l-3.571-3.571c-1.052-1.052-2.883-1.05-3.933 0l-4.553 4.553a2.764 2.764 0 0 0-.814 1.967c0 .742.289 1.44.814 1.966l3.572 3.571c.573.574.73 1.364.42 2.114S8.644 21 7.832 21H2.78A2.783 2.783 0 0 0 0 23.78v6.438A2.784 2.784 0 0 0 2.78 33h5.052c.812 0 1.481.447 1.792 1.197s.153 1.54-.42 2.114l-3.572 3.571a2.763 2.763 0 0 0-.814 1.966c0 .743.289 1.441.814 1.967l4.553 4.553c1.051 1.051 2.881 1.053 3.933 0l3.571-3.571a1.877 1.877 0 0 1 1.352-.574c.963 0 1.96.728 1.96 1.945v5.051A2.782 2.782 0 0 0 23.78 54h6.439a2.784 2.784 0 0 0 2.78-2.781v-5.051c0-1.218.997-1.945 1.96-1.945.354 0 .877.1 1.352.574l3.571 3.571c1.052 1.052 2.883 1.05 3.933 0l4.553-4.553a2.764 2.764 0 0 0 .814-1.967c0-.742-.289-1.44-.814-1.966l-3.572-3.571c-.573-.574-.73-1.364-.42-2.114S45.356 33 46.168 33h5.052A2.784 2.784 0 0 0 54 30.219V23.78A2.783 2.783 0 0 0 51.22 21zM34 27c0 3.859-3.141 7-7 7s-7-3.141-7-7 3.141-7 7-7 7 3.141 7 7z"/></symbol><symbol viewBox="0 0 481.6 481.6" id="share" xmlns="http://www.w3.org/2000/svg"><path d="M381.6 309.4c-27.7 0-52.4 13.2-68.2 33.6l-132.3-73.9c3.1-8.9 4.8-18.5 4.8-28.4 0-10-1.7-19.5-4.9-28.5l132.2-73.8c15.7 20.5 40.5 33.8 68.3 33.8 47.4 0 86.1-38.6 86.1-86.1S429 0 381.5 0s-86.1 38.6-86.1 86.1c0 10 1.7 19.6 4.9 28.5l-132.1 73.8c-15.7-20.6-40.5-33.8-68.3-33.8-47.4 0-86.1 38.6-86.1 86.1s38.7 86.1 86.2 86.1c27.8 0 52.6-13.3 68.4-33.9l132.2 73.9c-3.2 9-5 18.7-5 28.7 0 47.4 38.6 86.1 86.1 86.1s86.1-38.6 86.1-86.1-38.7-86.1-86.2-86.1zm0-282.3c32.6 0 59.1 26.5 59.1 59.1s-26.5 59.1-59.1 59.1-59.1-26.5-59.1-59.1 26.6-59.1 59.1-59.1zM100 299.8c-32.6 0-59.1-26.5-59.1-59.1s26.5-59.1 59.1-59.1 59.1 26.5 59.1 59.1-26.6 59.1-59.1 59.1zm281.6 154.7c-32.6 0-59.1-26.5-59.1-59.1s26.5-59.1 59.1-59.1 59.1 26.5 59.1 59.1-26.5 59.1-59.1 59.1z"/></symbol><symbol viewBox="0 0 512 512" id="shopping" xmlns="http://www.w3.org/2000/svg"><path d="M511.645 499.349l-21.642-78.698V112c0-5.522-4.477-10-10-10h-156V68c0-37.495-30.505-68-68-68s-68 30.505-68 68v34h-156c-5.523 0-10 4.478-10 10v308.65L.361 499.348C-1.373 505.653 3.494 512 10.003 512h491.996c6.483 0 11.365-6.401 9.646-12.651zM314.003 163c5.514 0 10 4.486 10 10s-4.486 10-10 10-10-4.486-10-10 4.486-10 10-10zm-106-95c0-26.467 21.533-48 48-48s48 21.533 48 48v34h-96V68zm-10 95c5.514 0 10 4.486 10 10s-4.486 10-10 10-10-4.486-10-10 4.486-10 10-10zm-156-41h146v22.72c-11.639 4.128-20 15.244-20 28.28 0 16.542 13.458 30 30 30s30-13.458 30-30c0-13.036-8.361-24.152-20-28.28V122h96v22.72c-11.639 4.128-20 15.244-20 28.28 0 16.542 13.458 30 30 30s30-13.458 30-30c0-13.036-8.361-24.152-20-28.28V122h146v290h-428V122zM23.124 492l16.5-60h432.758l16.5 60H23.124z"/><path d="M438.003 297.55c-5.51 0-10 4.49-10 10.01v60.99h-129c-5.51 0-10 4.49-10 10 0 5.52 4.49 10.01 10.01 10h138.99c5.197 0 10-4.337 10-10v-70.99c0-5.52-4.48-10.01-10-10.01zm0-40c-5.51 0-10 4.49-10 10 0 5.52 4.49 10 10 10 5.52 0 10-4.48 10-10 0-5.51-4.48-10-10-10z"/></symbol><symbol viewBox="0 0 489 489" id="shopping-bag" xmlns="http://www.w3.org/2000/svg"><path d="M440.1 422.7l-28-315.3c-.6-7-6.5-12.3-13.4-12.3h-57.6C340.3 42.5 297.3 0 244.5 0s-95.8 42.5-96.6 95.1H90.3c-7 0-12.8 5.3-13.4 12.3l-28 315.3c0 .4-.1.8-.1 1.2 0 35.9 32.9 65.1 73.4 65.1h244.6c40.5 0 73.4-29.2 73.4-65.1 0-.4 0-.8-.1-1.2zM244.5 27c37.9 0 68.8 30.4 69.6 68.1H174.9c.8-37.7 31.7-68.1 69.6-68.1zm122.3 435H122.2c-25.4 0-46-16.8-46.4-37.5l26.8-302.3h45.2v41c0 7.5 6 13.5 13.5 13.5s13.5-6 13.5-13.5v-41h139.3v41c0 7.5 6 13.5 13.5 13.5s13.5-6 13.5-13.5v-41h45.2l26.9 302.3c-.4 20.7-21.1 37.5-46.4 37.5z"/></symbol><symbol viewBox="0 0 384.97 384.97" id="size-menu" xmlns="http://www.w3.org/2000/svg"><path d="M12.03 120.303h360.909c6.641 0 12.03-5.39 12.03-12.03 0-6.641-5.39-12.03-12.03-12.03H12.03c-6.641 0-12.03 5.39-12.03 12.03s5.39 12.03 12.03 12.03zm360.909 60.152H12.03c-6.641 0-12.03 5.39-12.03 12.03s5.39 12.03 12.03 12.03h360.909c6.641 0 12.03-5.39 12.03-12.03s-5.389-12.03-12.03-12.03zm0 84.212H132.333c-6.641 0-12.03 5.39-12.03 12.03 0 6.641 5.39 12.03 12.03 12.03h240.606c6.641 0 12.03-5.39 12.03-12.03.001-6.641-5.389-12.03-12.03-12.03z"/></symbol><symbol viewBox="0 0 512 512" id="user" xmlns="http://www.w3.org/2000/svg"><path d="M437.02 330.98c-27.883-27.882-61.071-48.523-97.281-61.018C378.521 243.251 404 198.548 404 148 404 66.393 337.607 0 256 0S108 66.393 108 148c0 50.548 25.479 95.251 64.262 121.962-36.21 12.495-69.398 33.136-97.281 61.018C26.629 379.333 0 443.62 0 512h40c0-119.103 96.897-216 216-216s216 96.897 216 216h40c0-68.38-26.629-132.667-74.98-181.02zM256 256c-59.551 0-108-48.448-108-108S196.449 40 256 40s108 48.448 108 108-48.449 108-108 108z"/></symbol><symbol viewBox="0 0 350 350" id="user-admin" xmlns="http://www.w3.org/2000/svg"><path d="M175 171.173c38.914 0 70.463-38.318 70.463-85.586C245.463 38.318 235.105 0 175 0s-70.465 38.318-70.465 85.587c0 47.268 31.549 85.586 70.465 85.586zM41.909 301.853c-.012-2.882-.024-.812 0 0zm266.176 2.251c.038-.789.013-5.474 0 0z"/><path d="M307.935 298.397c-1.305-82.342-12.059-105.805-94.352-120.657 0 0-11.584 14.761-38.584 14.761s-38.586-14.761-38.586-14.761C55.018 192.43 43.61 215.545 42.11 295.722c-.123 6.547-.18 6.891-.202 6.131.005 1.424.011 4.058.011 8.651 0 0 19.592 39.496 133.08 39.496 113.486 0 133.08-39.496 133.08-39.496 0-2.951.002-5.003.005-6.399-.022.47-.066-.441-.149-5.708z"/></symbol><symbol viewBox="0 0 330 330" id="volume-control" xmlns="http://www.w3.org/2000/svg"><path d="M120 130h90v185h-90zM240 15h90v300h-90zM0 195h90v120H0z"/></symbol><symbol viewBox="0 0 486.46 486.46" id="warning" xmlns="http://www.w3.org/2000/svg"><path d="M243.225 333.382c-13.6 0-25 11.4-25 25s11.4 25 25 25c13.1 0 25-11.4 24.4-24.4.6-14.3-10.7-25.6-24.4-25.6z"/><path d="M474.625 421.982c15.7-27.1 15.8-59.4.2-86.4l-156.6-271.2c-15.5-27.3-43.5-43.5-74.9-43.5s-59.4 16.3-74.9 43.4l-156.8 271.5c-15.6 27.3-15.5 59.8.3 86.9 15.6 26.8 43.5 42.9 74.7 42.9h312.8c31.3 0 59.4-16.3 75.2-43.6zm-34-19.6c-8.7 15-24.1 23.9-41.3 23.9h-312.8c-17 0-32.3-8.7-40.8-23.4-8.6-14.9-8.7-32.7-.1-47.7l156.8-271.4c8.5-14.9 23.7-23.7 40.9-23.7 17.1 0 32.4 8.9 40.9 23.8l156.7 271.4c8.4 14.6 8.3 32.2-.3 47.1z"/><path d="M237.025 157.882c-11.9 3.4-19.3 14.2-19.3 27.3.6 7.9 1.1 15.9 1.7 23.8 1.7 30.1 3.4 59.6 5.1 89.7.6 10.2 8.5 17.6 18.7 17.6s18.2-7.9 18.7-18.2c0-6.2 0-11.9.6-18.2 1.1-19.3 2.3-38.6 3.4-57.9.6-12.5 1.7-25 2.3-37.5 0-4.5-.6-8.5-2.3-12.5-5.1-11.2-17-16.9-28.9-14.1z"/></symbol></svg>